<?xml version="1.0" encoding="UTF-8"?>
<svg id="iOS" xmlns="http://www.w3.org/2000/svg" viewBox="0 0 180 180">
  <defs>
    <style>
      .cls-1 {
        fill: #8a95fe;
        stroke-width: .28px;
      }

      .cls-1, .cls-2 {
        stroke: #8a95fe;
        stroke-miterlimit: 10;
      }

      .cls-2 {
        fill: #fdf8fa;
        stroke-width: .4px;
      }
    </style>
  </defs>
  <rect id="Background" class="cls-1" width="180" height="180"/>
  <g id="logo">
    <path id="outer_circle" data-name="outer circle" class="cls-2" d="M170.85,91.02c.27,42.13-35.82,76.34-79.1,76.89-45.43.58-81.28-34.71-81.64-76.2C9.73,48.55,46.07,14.62,88.86,13.86c45.64-.81,82.46,34.81,81.99,77.16ZM90.59,165.74c43.07.28,77.51-33.51,78.17-73.45.71-42.84-35.62-76.36-78.23-76.34-42.94.02-78.35,33.59-78.28,75.16.07,40.96,35.27,75.02,78.34,74.63Z"/>
    <path id="Bulb_and_Circle" data-name="Bulb and Circle" class="cls-2" d="M164.79,90.88c-.1,39.44-32.76,70.53-72.95,71.11-42.38.61-75.55-31.65-75.58-71.04-.03-39.5,33.04-71.44,74.84-71.19,40.6.24,73.62,31.56,73.69,71.12ZM103.2,148.68c0,1.99,0,3.98,0,5.97,0,1.68,0,1.65,1.71,1.36,2.69-.45,5.29-1.2,7.86-2.02,3.17-1.01,6.24-2.28,9.23-3.72,6.43-3.11,12.18-7.11,17.32-11.92,3.46-3.24,6.46-6.84,9.17-10.68,2.62-3.72,4.76-7.68,6.53-11.81,1.71-4.02,2.96-8.18,3.81-12.45.82-4.1,1.21-8.23,1.21-12.39,0-4.21-.39-8.39-1.21-12.54-.95-4.8-2.4-9.43-4.4-13.9-1.91-4.28-4.28-8.33-7.12-12.12-2.03-2.71-4.18-5.32-6.62-7.7-3.62-3.52-7.51-6.73-11.85-9.44-3.14-1.97-6.41-3.68-9.83-5.18-2.26-.99-4.58-1.81-6.93-2.58-2.71-.88-5.48-1.54-8.28-2.06-2.56-.47-5.15-.79-7.76-.99-4.18-.31-8.35-.25-12.51.14-3.24.31-6.45.81-9.62,1.57-2.38.57-4.73,1.23-7.03,2.02-3.46,1.19-6.79,2.65-10,4.36-3.24,1.72-6.32,3.66-9.22,5.85-3.29,2.48-6.33,5.22-9.12,8.22-2.44,2.63-4.67,5.41-6.64,8.37-2.51,3.8-4.64,7.79-6.31,11.99-1.1,2.78-1.99,5.61-2.72,8.5-.78,3.09-1.32,6.23-1.59,9.38-.28,3.32-.29,6.65-.11,9.98.22,4.25.94,8.41,2.01,12.52,1.49,5.72,3.83,11.12,6.85,16.25,3.02,5.14,6.71,9.78,11.03,13.97,3.44,3.33,7.18,6.3,11.29,8.86,2.79,1.73,5.65,3.33,8.65,4.67,5.47,2.44,11.17,4.24,17.14,5.2,1.04.17,1.23.06,1.24-.93.01-4.37.01-8.74,0-13.11,0-.67-.17-1.27-.71-1.81-1.51-1.53-2.55-3.33-2.92-5.43-.49-2.8-1.02-5.59-1.45-8.39-.44-2.91-1.08-5.79-1.53-8.69-.5-3.26-1.87-6.16-3.97-8.69-2.01-2.42-4.06-4.8-5.66-7.5-1.64-2.78-2.97-5.69-3.73-8.79-.93-3.78-.75-7.6.04-11.37.63-3.02,1.74-5.89,3.31-8.61,2.78-4.83,6.59-8.72,11.49-11.59,6.27-3.67,13.06-5.21,20.4-4.47,6.96.7,13.04,3.31,18.25,7.73,4.5,3.81,7.62,8.53,9.43,14.02.78,2.35,1.09,4.77,1.33,7.22.27,2.8-.05,5.53-.82,8.2-.66,2.28-1.62,4.47-2.81,6.57-1.58,2.78-3.4,5.39-5.58,7.76-2.05,2.23-3.52,4.78-4.25,7.65-.78,3.1-1.18,6.29-1.71,9.44-.5,2.95-1.1,5.89-1.56,8.85-.39,2.5-1.5,4.61-3.36,6.38-.34.32-.38.72-.38,1.14,0,2.25,0,4.5,0,6.75ZM91.32,135.95h0c1.19,0,2.38,0,3.56,0,1.92,0,3.19-1.08,3.47-2.9.13-.87.21-1.75.39-2.6.97-4.71,1.68-9.46,2.51-14.19.71-4.03,2.41-7.64,4.76-10.99,1.35-1.93,3.13-3.54,4.47-5.49,1.54-2.26,2.9-4.59,3.75-7.17.73-2.22.88-4.47.69-6.8-.31-3.78-1.63-7.2-3.74-10.35-1.94-2.91-4.52-5.24-7.61-7.04-2.35-1.37-4.86-2.35-7.56-2.85-2.9-.54-5.8-.58-8.74-.09-3.98.66-7.53,2.15-10.67,4.53-3.49,2.65-6.08,5.96-7.62,10-1.32,3.46-1.9,7.03-1.17,10.65.85,4.22,3.1,7.85,5.86,11.18,1.48,1.78,3.04,3.47,4.21,5.47,1.63,2.79,2.89,5.71,3.43,8.88.53,3.1,1.05,6.21,1.59,9.31.43,2.49.93,4.97,1.31,7.47.29,1.85,1.5,2.96,3.47,2.98,1.21,0,2.43,0,3.64,0ZM91.6,147.88c2.22.06,4.39-.32,6.57-.65.49-.07.77-.35.77-.84,0-.7,0-1.39,0-2.09,0-.45-.21-.59-.67-.48-.55.14-1.1.34-1.65.33-4.11-.08-8.24.41-12.33-.31-.48-.09-.65.04-.65.49,0,.7.02,1.39,0,2.09-.02.53.27.74.76.82,2.39.37,4.79.69,7.22.64ZM91.4,154.55c2,.07,3.97-.26,5.94-.51,1.57-.21,1.62-.32,1.61-1.73,0-.98-.17-1.1-1.2-.94-1.01.15-2.01.34-3.03.42-3.18.28-6.34.14-9.49-.32-1.6-.23-1.57-.21-1.61,1.34-.02.67.2.99.89,1.11,2.28.4,4.58.57,6.89.63Z"/>
    <path id="Heart" class="cls-2" d="M100.38,38.16c.14,2.68-1.16,4.69-3.12,6.39-1.72,1.49-3.44,2.97-5.18,4.44-.87.74-2.2.81-3.03.07-1.98-1.79-4.12-3.4-6.05-5.25-2.34-2.23-3.06-6.13-1.75-8.74.64-1.28,1.7-2.18,3.07-2.71,1.97-.76,3.9-.6,5.74.41.33.18.62.19.98-.01,1.93-1.09,4.01-1.2,5.97-.31,1.97.9,3.22,2.47,3.36,4.67.02.36,0,.72,0,1.05ZM98.29,38c0-1.94-.84-3.13-2.67-3.81-1.39-.52-3.32-.04-4.37,1.07q-.69.73-1.4.06c-.11-.11-.23-.22-.35-.33-1.72-1.57-4.6-1.31-5.98.54-1.16,1.56-1.02,4.37.41,6.1,1.78,2.16,4.18,3.7,6.27,5.56.27.24.53.18.78-.06,1.72-1.64,3.7-3,5.39-4.67,1.26-1.24,1.9-2.73,1.91-4.46Z"/>
    <path id="Peace_Sign" data-name="Peace Sign" class="cls-2" d="M91.04,100.41c-7.7.21-13.91-6.02-13.92-13.11,0-7.6,6.45-13.64,14.35-13.39,7.09.22,13.45,5.71,13.39,13.51-.06,7.08-6.33,13.18-13.82,12.99ZM89.71,81.75h0c0-1.34,0-2.68,0-4.03,0-1.11-.19-1.28-1.33-1.02-2.56.57-4.63,1.9-6.28,3.84-2.04,2.41-2.6,5.22-2.26,8.22.17,1.52.79,2.94,1.63,4.25.54.85.75.85,1.5.14,2.04-1.95,4.07-3.91,6.12-5.86.41-.39.64-.79.63-1.36-.03-1.39,0-2.79,0-4.18ZM92.28,81.68h0c0,1.45,0,2.89,0,4.34,0,.41.08.74.4,1.04,2.2,2.09,4.4,4.19,6.57,6.3.41.4.71.4,1.03-.05,1.95-2.72,2.34-5.74,1.63-8.87-.34-1.49-1.12-2.85-2.14-4.04-1.75-2.06-4-3.32-6.73-3.78-.62-.11-.76.13-.75.65.01,1.47,0,2.94,0,4.41ZM89.71,94.16h0c0-1.03,0-2.07,0-3.1,0-.17.05-.39-.15-.49-.25-.13-.4.09-.54.23-1.55,1.47-3.09,2.96-4.64,4.43-.29.28-.31.45.04.73,1.37,1.11,3.02,1.55,4.7,1.91.48.1.59-.23.59-.62,0-1.03,0-2.07,0-3.1ZM92.28,94.16h0c0,1.03,0,2.07,0,3.1,0,.32.02.63.53.57,1.72-.22,3.26-.83,4.66-1.81.46-.32.31-.62.03-.9-1.49-1.45-3-2.89-4.51-4.33-.14-.14-.32-.33-.55-.22-.23.11-.14.37-.14.56,0,1.01,0,2.01,0,3.02Z"/>
    <path class="cls-2" d="M129.23,69.86c-.99.14-1.68-.33-2-1.13-.32-.8-.21-1.61.48-2.29.6-.59,1.41-.85,2.12-1.25,2.69-1.52,5.4-3,8.09-4.52.8-.45,1.62-.74,2.53-.42.76.26,1.23.79,1.35,1.6.16,1.05-.4,1.76-1.26,2.24-2.67,1.5-5.37,2.95-8.05,4.42-.61.33-1.21.68-1.81,1.02-.45.26-.93.42-1.45.33Z"/>
    <path class="cls-2" d="M140.7,90.81c-1.94,0-3.89.01-5.83,0-1.51-.01-2.24-.66-2.28-1.94-.03-1.35.74-2.16,2.24-2.17,3.94-.03,7.88-.03,11.82,0,1.3,0,2.33,1.03,2.25,2.17-.07.94-.92,2-2.29,1.97-1.97-.04-3.94-.01-5.91-.01h0Z"/>
    <path class="cls-2" d="M114.07,54.5c-2.13-.01-3.14-1.67-2.32-3.09.7-1.22,1.42-2.42,2.14-3.63,1.25-2.08,2.5-4.15,3.75-6.23.6-.99,1.79-1.4,2.84-.95,1.14.49,1.66,1.55,1.09,2.68-.78,1.53-1.73,2.97-2.61,4.45-1.11,1.86-2.22,3.71-3.34,5.57-.45.75-1.09,1.2-1.57,1.21Z"/>
    <path class="cls-2" d="M138.9,117.4c-.53.04-.98-.12-1.45-.38-3.28-1.83-6.56-3.66-9.86-5.44-1.33-.72-1.41-2.01-.96-2.92.51-1.01,1.81-1.36,2.92-.77,2.35,1.25,4.68,2.54,7.01,3.81,1.12.61,2.27,1.2,3.35,1.87,1.49.92,1.52,2.74.14,3.6-.38.23-.76.21-1.16.23Z"/>
    <path class="cls-2" d="M72.59,51.61c0,1.04-.62,1.88-1.47,2.08-1.06.26-2.13-.17-2.65-1.03-1.84-3.06-3.69-6.11-5.53-9.17-.38-.64-.66-1.28-.56-2.05.11-.81.57-1.33,1.32-1.62.81-.31,1.54-.13,2.17.42.82.71,1.18,1.71,1.73,2.6,1.56,2.5,3.07,5.04,4.6,7.56.25.41.47.82.39,1.22Z"/>
    <path class="cls-2" d="M56.14,66.69c-.01,1.6-1.57,2.58-3.04,1.82-2.23-1.14-4.41-2.39-6.6-3.6-1.31-.72-2.62-1.43-3.91-2.18-1.05-.61-1.39-1.94-.8-2.89.59-.95,1.9-1.3,2.98-.71,3.44,1.89,6.85,3.8,10.27,5.72.73.41,1.16.99,1.1,1.84Z"/>
    <path class="cls-2" d="M41.89,85.27c1.97,0,3.94-.02,5.91,0,1.38.02,2.21.88,2.18,2.17-.03,1.11-.82,1.94-1.98,1.95-4.08.03-8.15.03-12.23,0-1.24,0-2.13-.97-2.11-2.11.02-1.07.97-1.99,2.15-2.01,2.02-.03,4.05,0,6.07,0Z"/>
    <path class="cls-2" d="M53.3,106.19c.99,0,1.87.62,2.12,1.49.25.86-.12,1.8-1.03,2.33-1.63.95-3.3,1.85-4.96,2.77-1.7.94-3.4,1.89-5.11,2.83-1.26.7-2.49.55-3.19-.38-.77-1.02-.48-2.4.72-3.08,3.46-1.94,6.94-3.85,10.41-5.78.32-.18.67-.19,1.02-.18Z"/>
  </g>
</svg>