<?xml version="1.0" encoding="UTF-8"?>
<svg id="og_image" data-name="og image" xmlns="http://www.w3.org/2000/svg" viewBox="0 0 1200 630">
  <defs>
    <style>
      .cls-1 {
        fill: #8a95fe;
        stroke-width: 1.34px;
      }

      .cls-1, .cls-2 {
        stroke: #8a95fe;
        stroke-miterlimit: 10;
      }

      .cls-2 {
        fill: #fdf8fa;
        stroke-width: .82px;
      }
    </style>
  </defs>
  <rect id="Background" class="cls-1" x=".69" y=".87" width="1200" height="630"/>
  <g id="logo">
    <path id="outer_white_border" data-name="outer white border" class="cls-2" d="M380.36,314.84c0-94.96,0-189.91,0-284.87,0-3.22-.39-2.83,2.92-2.83,144.68,0,289.36,0,434.03,0,2.31,0,2.32,0,2.32,2.29,0,82.73,0,165.47,0,248.2,0,107.29,0,214.57,0,321.86,0,.32,0,.64,0,.96q0,2.44-2.51,2.44c-138.94,0-277.88,0-416.81,0-5.85,0-11.7,0-17.56,0q-2.4,0-2.41-2.37c0-3.95,0-7.9,0-11.85,0-91.27,0-182.55,0-273.82h0ZM385.38,315.03c0,93.46,0,186.92,0,280.38q0,2.41,2.45,2.42c141.28,0,282.55,0,423.83,0q2.98,0,2.98-2.87c0-180.3,0-360.6,0-540.9,0-6.73-.02-13.45.02-20.18,0-1.22-.38-1.83-1.72-1.69-.39.04-.78,0-1.17,0-141.22,0-282.44,0-423.66,0q-2.73,0-2.73,2.63c0,93.41,0,186.81,0,280.22Z"/>
    <path id="Inner_Rectangular_Border" data-name="Inner Rectangular Border" class="cls-2" d="M394.06,315.01c0-90.95,0-181.9,0-272.85q0-2.63,2.74-2.63c135.92,0,271.85,0,407.77,0q2.38,0,2.38,2.33c0,182.01,0,364.02,0,546.03q0,2.54-2.65,2.54c-135.87,0-271.74,0-407.61,0q-2.63,0-2.63-2.56c0-90.95,0-181.9,0-272.85h0ZM404.36,315.01h0c0,87.7,0,175.39,0,263.09,0,2.48.01,2.49,2.49,2.49,129.07,0,258.15,0,387.22,0q2.61,0,2.61-2.54c0-175.23,0-350.47,0-525.7,0-.64-.02-1.28,0-1.92.02-.87-.42-1.27-1.32-1.26-.5,0-1,0-1.5,0-128.96,0-257.92,0-386.89,0-2.59,0-2.6,0-2.6,2.6,0,87.75,0,175.5,0,263.25Z"/>
    <path id="outer_circle" data-name="outer circle" class="cls-2" d="M765.86,235.09c.56,86.98-73.95,157.6-163.3,158.75-93.79,1.2-167.8-71.67-168.56-157.32-.78-89.11,74.25-159.16,162.58-160.74,94.23-1.68,170.26,71.86,169.27,159.31ZM600.16,389.35c88.92.57,160.03-69.19,161.4-151.65,1.46-88.45-73.55-157.65-161.52-157.61-88.65.04-161.76,69.36-161.61,155.18.15,84.57,72.81,154.89,161.73,154.08Z"/>
    <path id="Bulb_and_Circle" data-name="Bulb and Circle" class="cls-2" d="M753.36,234.8c-.2,81.42-67.64,145.62-150.62,146.81-87.5,1.26-155.98-65.34-156.03-146.67-.06-81.55,68.2-147.49,154.51-146.99,83.83.49,152,65.17,152.14,146.84ZM626.18,354.13c0,4.11,0,8.22,0,12.33,0,3.47-.01,3.41,3.53,2.82,5.54-.93,10.92-2.47,16.24-4.17,6.55-2.09,12.88-4.7,19.05-7.69,13.27-6.42,25.15-14.67,35.75-24.62,7.13-6.69,13.34-14.12,18.94-22.06,5.41-7.68,9.83-15.85,13.47-24.39,3.54-8.29,6.11-16.88,7.87-25.71,1.69-8.46,2.5-16.98,2.5-25.58,0-8.69-.8-17.31-2.49-25.89-1.95-9.9-4.95-19.47-9.08-28.7-3.95-8.84-8.84-17.2-14.71-25.02-4.19-5.59-8.62-10.99-13.66-15.9-7.47-7.27-15.51-13.88-24.46-19.48-6.49-4.06-13.24-7.61-20.29-10.69-4.66-2.04-9.45-3.74-14.3-5.32-5.59-1.82-11.31-3.19-17.1-4.24-5.29-.96-10.64-1.64-16.03-2.04-8.63-.65-17.23-.53-25.83.28-6.7.63-13.32,1.68-19.87,3.24-4.92,1.18-9.76,2.54-14.52,4.18-7.14,2.45-14.01,5.47-20.65,9-6.69,3.55-13.05,7.56-19.04,12.08-6.79,5.12-13.07,10.77-18.82,16.97-5.03,5.43-9.65,11.16-13.7,17.29-5.18,7.84-9.58,16.08-13.03,24.76-2.27,5.73-4.11,11.59-5.62,17.56-1.62,6.38-2.72,12.86-3.28,19.37-.59,6.85-.59,13.72-.24,20.61.45,8.78,1.94,17.36,4.15,25.85,3.08,11.81,7.91,22.95,14.14,33.55,6.23,10.6,13.86,20.19,22.77,28.84,7.09,6.88,14.82,13.02,23.31,18.3,5.75,3.58,11.66,6.87,17.86,9.64,11.3,5.04,23.05,8.76,35.38,10.73,2.15.34,2.54.12,2.55-1.92.03-9.02.02-18.04,0-27.06,0-1.39-.35-2.62-1.47-3.75-3.12-3.16-5.27-6.88-6.03-11.21-1.01-5.77-2.11-11.53-2.99-17.33-.91-6-2.24-11.95-3.16-17.95-1.03-6.73-3.85-12.72-8.2-17.95-4.15-5-8.39-9.92-11.69-15.49-3.39-5.73-6.13-11.74-7.71-18.15-1.93-7.81-1.55-15.69.07-23.48,1.3-6.24,3.6-12.16,6.83-17.78,5.75-9.98,13.61-18,23.73-23.94,12.94-7.58,26.97-10.75,42.13-9.23,14.37,1.44,26.92,6.83,37.68,15.96,9.29,7.88,15.72,17.6,19.47,28.94,1.6,4.85,2.26,9.85,2.74,14.91.55,5.77-.09,11.42-1.69,16.93-1.36,4.7-3.34,9.23-5.79,13.56-3.25,5.74-7.02,11.12-11.51,16.03-4.23,4.61-7.27,9.87-8.76,15.79-1.62,6.41-2.43,12.98-3.54,19.49-1.04,6.1-2.26,12.16-3.22,18.27-.81,5.16-3.1,9.51-6.93,13.17-.7.67-.79,1.49-.78,2.36,0,4.64,0,9.29,0,13.93ZM601.67,327.85h0c2.45.01,4.9.02,7.36,0,3.96-.02,6.59-2.22,7.15-5.98.27-1.79.44-3.6.81-5.38,2.01-9.72,3.46-19.53,5.17-29.29,1.46-8.32,4.97-15.78,9.83-22.7,2.79-3.97,6.47-7.3,9.22-11.33,3.18-4.66,6-9.47,7.74-14.8,1.5-4.58,1.82-9.23,1.42-14.04-.65-7.81-3.37-14.87-7.71-21.38-4.01-6.01-9.33-10.82-15.71-14.53-4.85-2.82-10.04-4.85-15.61-5.89-5.99-1.12-11.98-1.19-18.05-.19-8.21,1.36-15.55,4.43-22.03,9.35-7.21,5.47-12.56,12.31-15.74,20.66-2.73,7.15-3.92,14.52-2.42,21.99,1.75,8.71,6.39,16.21,12.1,23.08,3.05,3.67,6.28,7.17,8.69,11.29,3.37,5.77,5.97,11.78,7.08,18.33,1.09,6.41,2.17,12.82,3.29,19.22.89,5.14,1.92,10.27,2.71,15.43.59,3.82,3.11,6.12,7.17,6.14,2.51.02,5.02,0,7.52,0ZM602.25,352.48c4.58.12,9.07-.66,13.57-1.34,1.02-.15,1.59-.72,1.6-1.73.01-1.44,0-2.88,0-4.32,0-.92-.44-1.23-1.39-.99-1.13.28-2.28.71-3.42.69-8.49-.16-17.02.85-25.47-.65-.99-.18-1.35.09-1.35,1,0,1.44.03,2.88-.02,4.32-.04,1.09.56,1.53,1.57,1.69,4.94.77,9.89,1.42,14.91,1.33ZM601.83,366.25c4.14.14,8.2-.53,12.27-1.06,3.25-.42,3.34-.65,3.33-3.58-.01-2.01-.35-2.27-2.49-1.95-2.08.31-4.16.69-6.25.88-6.56.57-13.09.28-19.6-.66-3.31-.48-3.25-.43-3.33,2.77-.04,1.37.41,2.04,1.85,2.29,4.71.83,9.46,1.17,14.23,1.31Z"/>
    <path id="Heart" class="cls-2" d="M620.37,125.95c.29,5.54-2.4,9.68-6.44,13.19-3.54,3.08-7.11,6.13-10.69,9.17-1.79,1.52-4.55,1.67-6.25.14-4.09-3.69-8.5-7.03-12.49-10.83-4.83-4.6-6.32-12.65-3.61-18.05,1.32-2.64,3.52-4.51,6.34-5.6,4.07-1.58,8.04-1.25,11.85.84.69.38,1.28.39,2.01-.03,3.98-2.25,8.28-2.48,12.33-.64,4.07,1.85,6.66,5.1,6.94,9.65.05.74,0,1.49,0,2.17ZM616.06,125.61c0-4-1.73-6.46-5.51-7.87-2.86-1.07-6.85-.09-9.01,2.21q-1.42,1.52-2.89.12c-.24-.23-.47-.45-.71-.67-3.55-3.23-9.5-2.7-12.34,1.11-2.4,3.22-2.1,9.02.85,12.59,3.68,4.46,8.63,7.65,12.94,11.49.56.5,1.1.36,1.61-.12,3.55-3.39,7.64-6.2,11.13-9.65,2.6-2.57,3.91-5.64,3.94-9.21Z"/>
    <path id="Peace_Sign" data-name="Peace Sign" class="cls-2" d="M601.09,254.47c-15.89.43-28.72-12.42-28.73-27.06-.02-15.69,13.32-28.16,29.62-27.65,14.65.46,27.77,11.79,27.65,27.9-.12,14.62-13.06,27.22-28.54,26.81ZM598.34,215.94h0c0-2.77,0-5.54,0-8.31,0-2.3-.4-2.63-2.74-2.11-5.28,1.18-9.56,3.92-12.96,7.92-4.22,4.97-5.36,10.79-4.66,16.98.36,3.15,1.64,6.07,3.36,8.78,1.12,1.75,1.55,1.76,3.1.28,4.21-4.03,8.41-8.08,12.64-12.09.84-.8,1.32-1.64,1.29-2.81-.06-2.88-.02-5.76-.02-8.63ZM603.65,215.81h0c0,2.98.02,5.97,0,8.95,0,.84.16,1.53.82,2.16,4.54,4.31,9.07,8.64,13.57,13.01.85.82,1.47.82,2.13-.1,4.02-5.62,4.83-11.84,3.36-18.32-.69-3.07-2.32-5.88-4.42-8.34-3.62-4.24-8.25-6.85-13.9-7.81-1.29-.22-1.56.28-1.55,1.34.03,3.04.01,6.07.01,9.11ZM598.33,241.56h0c0-2.13,0-4.27,0-6.4,0-.36.11-.81-.31-1.01-.52-.26-.82.19-1.12.47-3.2,3.04-6.38,6.11-9.58,9.15-.6.57-.63.93.09,1.52,2.82,2.29,6.23,3.19,9.71,3.95,1,.22,1.22-.48,1.22-1.27,0-2.13,0-4.27,0-6.4ZM603.65,241.57h0c0,2.13-.01,4.26,0,6.39,0,.67.05,1.31,1.09,1.18,3.55-.45,6.73-1.72,9.62-3.73.94-.66.65-1.28.06-1.85-3.08-3-6.2-5.97-9.32-8.94-.3-.28-.67-.69-1.15-.45-.47.24-.29.76-.29,1.17-.02,2.08,0,4.16,0,6.24Z"/>
    <path class="cls-2" d="M679.94,191.4c-2.05.29-3.46-.68-4.13-2.33-.66-1.65-.42-3.33.99-4.73,1.24-1.23,2.91-1.75,4.38-2.59,5.55-3.14,11.15-6.19,16.71-9.32,1.66-.94,3.35-1.52,5.22-.87,1.57.54,2.54,1.64,2.79,3.29.33,2.18-.83,3.63-2.6,4.62-5.51,3.1-11.08,6.09-16.62,9.13-1.25.69-2.5,1.39-3.74,2.1-.93.53-1.91.87-3,.69Z"/>
    <path class="cls-2" d="M703.62,234.65c-4.01,0-8.02.02-12.03,0-3.11-.02-4.63-1.35-4.7-4.01-.07-2.79,1.52-4.46,4.62-4.49,8.13-.07,16.27-.06,24.4-.02,2.69.01,4.81,2.12,4.64,4.48-.14,1.93-1.9,4.12-4.73,4.07-4.06-.09-8.13-.02-12.2-.02h0Z"/>
    <path class="cls-2" d="M648.64,159.68c-4.4-.03-6.48-3.44-4.78-6.38,1.44-2.51,2.93-5.01,4.42-7.49,2.57-4.29,5.17-8.56,7.74-12.85,1.23-2.05,3.7-2.89,5.87-1.96,2.35,1,3.44,3.2,2.26,5.53-1.6,3.15-3.56,6.13-5.38,9.18-2.29,3.83-4.59,7.66-6.89,11.49-.92,1.54-2.24,2.48-3.24,2.49Z"/>
    <path class="cls-2" d="M699.91,289.54c-1.1.09-2.03-.25-2.99-.79-6.76-3.79-13.53-7.56-20.37-11.24-2.75-1.48-2.91-4.15-1.97-6.02,1.04-2.09,3.74-2.81,6.03-1.59,4.86,2.57,9.66,5.24,14.48,7.88,2.32,1.27,4.68,2.47,6.91,3.86,3.07,1.91,3.15,5.66.3,7.44-.78.48-1.58.43-2.4.47Z"/>
    <path class="cls-2" d="M563,153.72c0,2.16-1.28,3.88-3.04,4.3-2.19.53-4.4-.35-5.47-2.12-3.8-6.32-7.61-12.62-11.42-18.93-.79-1.31-1.37-2.65-1.15-4.24.23-1.67,1.17-2.74,2.73-3.34,1.66-.64,3.19-.27,4.49.86,1.69,1.47,2.45,3.54,3.58,5.36,3.21,5.17,6.33,10.4,9.49,15.6.51.84.96,1.7.8,2.51Z"/>
    <path class="cls-2" d="M529.03,184.85c-.03,3.31-3.23,5.33-6.28,3.77-4.6-2.36-9.1-4.93-13.63-7.43-2.7-1.49-5.41-2.95-8.07-4.51-2.17-1.27-2.88-4.01-1.66-5.97,1.23-1.97,3.92-2.69,6.16-1.46,7.09,3.89,14.15,7.85,21.21,11.8,1.5.84,2.4,2.04,2.26,3.8Z"/>
    <path class="cls-2" d="M499.62,223.21c4.07,0,8.14-.04,12.2.01,2.86.04,4.57,1.82,4.49,4.48-.07,2.29-1.68,4-4.09,4.02-8.41.06-16.83.06-25.24,0-2.55-.02-4.4-2-4.35-4.36.05-2.21,2-4.11,4.45-4.14,4.18-.06,8.36-.02,12.54-.02Z"/>
    <path class="cls-2" d="M523.17,266.39c2.04,0,3.86,1.29,4.38,3.09.52,1.77-.24,3.71-2.13,4.81-3.37,1.96-6.82,3.82-10.23,5.71-3.51,1.95-7.02,3.9-10.54,5.84-2.61,1.44-5.14,1.13-6.58-.79-1.58-2.1-.99-4.96,1.49-6.36,7.14-4.02,14.33-7.96,21.5-11.93.66-.36,1.38-.38,2.11-.37Z"/>
    <g>
      <path class="cls-2" d="M714.44,473.34c2.15-.05,3.83.61,5.61.58,3.96-.07,5.13-1.09,5.09-4.85-.02-1.64-.23-3.29-.36-5.08,1.19,1.47,1.41,3.2,2.23,4.68,1.72,3.09,3.61,3.67,6.83,2.05,1.52-.76,2.7-1.99,4.39-2.6-.96,1.25-1.95,2.48-2.86,3.76-2.19,3.11-1.66,5.15,1.82,6.87,1.51.75,3.09,1.37,4.62,2.17-1.69.1-3.31-.55-4.99-.43-.72.05-1.45-.01-2.17.05-1.89.16-3.18,1.53-3.29,3.43-.12,2.06.06,4.11.28,6.18-1.16-1.59-1.45-3.52-2.56-5.1-1.8-2.56-3.77-3.03-6.51-1.37-1.43.87-2.8,1.82-4.46,2.91.49-1.42,1.54-2.11,2.21-3.02.55-.74,1.1-1.47,1.48-2.31.98-2.13.38-4.08-1.73-5.22-1.69-.91-3.47-1.69-5.61-2.72Z"/>
      <path class="cls-2" d="M743.32,445.51c2.13-9.21-1.62-14.78-11.11-17.04,4.14.12,8.15.95,11.81-1.12,3.67-2.08,4.73-5.86,6.4-9.31-.1,1.79-.06,3.53-.05,5.28.02,5.53,2.52,8.81,8.06,10.53,1.11.35,2.18.78,3.57,1.58-2.59-.35-4.8-.41-7.01-.45-3.71-.07-6.35,1.56-8.36,4.4-1.31,1.86-2.07,3.98-3.31,6.13Z"/>
      <path class="cls-2" d="M688.8,445.43c1.45,1.01,1.96,2.32,2.94,3.26,2.01,1.91,3.81,1.99,5.74.04.98-.99,1.83-2.08,3.02-3.45-.29,1.89-1.18,3.15-1.44,4.6-.46,2.52.28,3.72,2.91,4.27.86.18,1.77.16,2.64.32.69.12,1.96-.41,1.94.53-.02.81-1.31.37-2.03.46-.77.1-1.53.17-2.3.33-3.55.76-3.63,2.4-2.62,5.88.34,1.19,1.02,2.3,1.33,3.57-.88-1.05-1.76-2.09-2.63-3.15-2.22-2.7-4.4-2.74-6.68-.11-.81.93-1.55,1.91-2.6,3.22.28-2.01,1.26-3.35,1.54-4.91.44-2.5-.23-3.59-2.75-4.19-1.67-.4-3.34-.73-5.11-.93,1.75-.33,3.5-.63,5.24-1.01,2.48-.53,3.04-1.51,2.61-3.92-.28-1.6-1.24-2.94-1.76-4.8Z"/>
      <path class="cls-2" d="M462.15,502.85c1.99,0,3.63.05,5.26-.01,2.77-.09,4.82-1.24,6.03-3.74.62-1.28,1.05-2.7,2.19-3.85-1.35,6.4.67,10.8,7.81,12.36-1.43.55-2.67.32-3.88.33-4.63.04-6.91,1.59-8.31,5.82-.24.71-.58,1.33-1.16,2.29.05-3.1.89-5.91-.63-8.56-1.54-2.68-4.7-3.04-7.31-4.65Z"/>
      <path class="cls-2" d="M466.57,530.87c-.49.77-.97,1.55-1.49,2.31-1.76,2.58-1.14,4.52,1.83,5.69.45.18,1,.17,1.34.85-.98,0-1.89.04-2.79,0-2.66-.14-3.73.92-3.58,3.93.03.63.34,1.24.09,2.02-.59-.34-.75-.9-.96-1.4-1.41-3.26-3.06-3.76-6.19-1.92-.5.29-.84.88-1.7.87.29-1.01,1.2-1.55,1.64-2.36,1.27-2.3,1.08-3.04-1.14-4.49-1.05-.69-2.29-1.01-3.35-1.73,1.49.03,2.94.27,4.42.19,1.9-.09,2.56-.71,2.63-2.56.04-1.01.05-2.02.09-3.03,0-.09.12-.17.3-.4.47.89.87,1.73,1.33,2.53,1.13,1.96,2.51,2.37,4.57,1.3,1.02-.53,1.97-1.19,2.95-1.8,0,0,0,0,0,0Z"/>
      <path class="cls-2" d="M705.2,414.5c3.57,2.98,7.15,2.92,10.95.22-3.19,3.57-2.92,7.01.03,10.56-3.61-2.82-7.18-3.04-10.91-.26.68-1.87,2.22-3.18,2.2-5.28-.02-2.1-1.52-3.41-2.27-5.26Z"/>
      <path class="cls-2" d="M438.57,525.98c-1.24-1.08-2.5-1.48-3.95-.48-.67.47-.93,0-.89-.56.11-1.35-.39-2.26-1.8-2.67-.5-.14-.62-.66-.18-.81,1.85-.59,2.04-2.03,1.98-3.82,1.85,1.32,3.42,1.18,4.89-.14.48.88-.15,1.98.38,2.4,1.67,1.31,1.96,2.38,0,3.64-.23.15-.08.81-.12,1.23-.03.36.13.74-.32,1.2Z"/>
      <path class="cls-2" d="M443.79,493.3c2.6,2,4.82,1.72,7.18.3-1.37,2.18-1.89,4.29.06,6.58-1.51-.04-2.41-.89-3.6-.87-1.21.02-2.19.69-3.47.85.24-1.19,1.06-2.03,1.05-3.22,0-1.2-.74-2.07-1.21-3.64Z"/>
      <path class="cls-2" d="M761.72,482.29c-1.18.04-2.08.22-2.75.98-.28.32-.92.63-.9-.13.02-1.09-.72-1.7-1.37-2.39.16-.14.23-.25.32-.27,2.32-.56,2.96-.33,4.71,1.82Z"/>
      <path class="cls-2" d="M691.53,431.78c-.09-1.12-.23-1.93-.98-2.54-.52-.42-.46-.93.27-.97.99-.05,1.59-.65,2.39-1.29.39.99.46,2.06,1.38,2.72.33.24.11.68-.28.67-1.09,0-1.77.74-2.78,1.4Z"/>
      <path class="cls-2" d="M721.07,445.42c.67-1.26.35-2.27-.16-3.35.79.08,1.44.26,2.06.17,1.13-.15,1.5-.25,1.52,1.27.01,1.65-.46,1.84-1.82,1.73-.42-.03-.85.09-1.6.17Z"/>
      <path class="cls-2" d="M479.88,539.69c.98.31,1.42-1.9,2.51-.33.22.32,1.35.93.23,1.64-1.56.99-2.14.02-2.74-1.31Z"/>
      <path class="cls-2" d="M434.36,547.1c-1-.3-1.13-1.26-1.16-1.78-.05-.76,1.13-.93,1.67-.94.8-.01,1.08,1.16,1.13,1.61.09.72-1.2.52-1.64,1.11Z"/>
      <path class="cls-2" d="M436.07,504c-.5.65-1.19,1.02-1.82.98-.83-.06-1.06-1.1-1.06-1.58,0-.84,1.18-1.01,1.76-1,.71.02.5,1.14,1.12,1.6Z"/>
      <path class="cls-2" d="M753.37,456.53c-.81-.35-.78-1.09-.84-1.62-.08-.72.69-.91,1.26-.93.8-.03,1.21.71,1.22,1.25.02.93-1.18.72-1.64,1.3Z"/>
    </g>
    <path class="cls-2" d="M557.37,535.85c-1.18,3.06-2.18,6.15-3.67,9.06-1.98,3.84-4.43,7.32-8.36,9.53-3.2,1.8-6.57,1.43-9.75-.08-3.98-1.89-5.96-5.39-7.08-9.27-1.99-6.89-1.34-13.95-1.15-20.98.13-4.69.18-9.38-.08-14.08-.22-3.94-.19-7.89-1.16-11.76-.23-.93-.41-1.89-.77-2.78-.99-2.45-2.48-3.03-5.01-1.93-2.55,1.11-4.48,3-6.16,5.06-3.78,4.63-6.25,9.84-6.69,15.76-.21,2.87-.21,5.75,1.48,8.37.98,1.52-.23,3.28-2.39,3.59-5.33.76-7.9-2.45-8.49-6.52-.87-6.07.75-11.76,3.81-17.04,3.64-6.28,8.47-11.56,15.83-13.72,6.91-2.03,13.99-1.07,17.65,5.11,1.89,3.19,2.35,6.73,2.69,10.3.5,5.32.2,10.65.11,15.98-.12,7.35.09,14.71,1.6,21.96.3,1.45.78,2.87,1.64,4.14,1.17,1.73,3.17,1.88,4.59.3,1.97-2.2,2.93-4.87,3.86-7.55,2.42-7,3.81-14.22,4.99-21.49,1.1-6.79,2.1-13.59,2.39-20.46.08-1.9.88-3.04,2.77-3.56,2.33-.64,4.7-.75,7.02.17,1.57.62,2.25,1.63,2.22,3.34-.13,8.11-.57,16.22-.34,24.33.19,6.76.36,13.54,1.91,20.18.46,1.97.91,3.96,2.28,5.61,1.16,1.4,2.78,1.59,4.16.34,2.45-2.24,3.65-5.19,4.82-8.12,2.61-6.59,4.61-13.35,5.74-20.31,1.29-7.86,2.37-15.75.81-23.69-.54-2.76-1.35-5.53-4-7.31-.9-.6-.66-1.18.01-1.83,2.67-2.62,7.57-2.31,9.86.72,1.77,2.34,2.75,5.05,3.05,7.87.95,9.09.13,18.05-2.09,26.96-1.74,6.99-4.08,13.74-7.51,20.11-2.43,4.52-5.37,8.73-9.91,11.63-5.32,3.39-12.63,1.72-16.08-3.49-2.62-3.94-3.62-8.28-4.05-12.82-.05-.55.16-1.19-.57-1.64Z"/>
    <path id="Carey" class="cls-2" d="M632.62,455.03c-1.54,3.23-3.05,6.47-5.15,9.42-1.12,1.56-2.46,2.92-4.11,3.91-3.53,2.12-9.4.43-11.47-3.21-.88-1.55-1.57-3.17-1.88-4.93-.11-.62-.24-1.26-.81-1.94-.73.98-1.38,1.93-2.13,2.81-3.11,3.68-6.4,7.21-11.49,8.32-7.28,1.59-14.41-.73-17.49-8.1-.29-.7-.41-1.91-1.16-1.93-.82-.03-.9,1.2-1.29,1.87-1.53,2.67-3.16,5.26-5.93,6.95-4.25,2.58-10.34,1.1-12.99-3.34-1.75-2.93-2.28-6.12-2.43-9.37-.22-5.12.12-10.23,1.13-15.28.47-2.35.02-2.81-2.45-2.5-3.78.47-3.6.5-4.24,4.11-1.44,8.03-3.78,15.79-8.48,22.7-1.49,2.19-3.41,3.98-6.22,4.51-4.37.83-8.82-1.8-10.51-6.08-.28-.71-.22-1.93-1.08-1.97-.83-.04-.91,1.18-1.29,1.86-1.14,1.98-2.46,3.81-4.36,5.19-4.75,3.45-12.53,2.04-15.89-3.82-.76-1.33-1.21-2.74-1.69-4.16-.15-.44-.16-1.04-.76-1.13-.61-.1-.82.44-1.1.83-2.98,4.11-6.74,7.31-11.55,9.4-4.5,1.96-9.21,2.4-14.03,2.03-3.95-.3-7.79-1.11-11.3-3.07-4.65-2.6-8.27-6.11-10.56-10.78-4.34-8.84-4.72-18.11-2.74-27.52,1.89-9,6.42-16.51,14.32-21.96,4.72-3.25,9.92-5.08,15.78-5.47,4.09-.27,7.99-.04,11.71,1.7,6.8,3.18,9.98,10.9,7.25,17.6-2.05,5.02-9.55,6.79-13.34,3.18-.84-.8-.95-1.31-.09-2.22,3.13-3.3,3.92-7.2,2.82-11.46-.57-2.22-2.51-3.52-4.9-3.66-6.47-.39-11.01,2.86-14.77,7.34-4.72,5.63-6.6,12.33-7.47,19.37-.73,5.88-.09,11.61,2.04,17.14,2.11,5.51,5.52,10.09,11.58,12.04,6.38,2.05,12.31.73,17.61-3.16,3.79-2.79,6.65-6.34,8.36-10.58.91-2.26.99-4.81,1.74-7.13,1.88-5.79,5.06-10.69,11.59-12.39,3.55-.93,7.29-1.19,10.44,1.43.56.46,1.01.17,1.52-.07,2.56-1.19,5.16-1.01,7.76-.17,1.21.39,1.75,1.18,1.67,2.44-.19,2.98-.27,5.97-.48,8.94-.36,5.17-.46,10.33.4,15.47.11.63.3,1.24.45,1.87.26,1.08.62,2.14,1.94,2.33,1.35.18,2-.89,2.55-1.77,1.22-1.97,2.25-4.04,3.15-6.17,2.16-5.16,3.74-10.46,4.39-16,.14-1.17-.26-1.92-1.3-2.68-3.91-2.85-3.6-9.07.48-11.53,2.39-1.44,4.85-.45,5.52,2.17.42,1.64.3,3.29.25,4.94-.04,1.23.52,1.66,1.69,1.55,1.38-.13,2.78-.19,4.11-.6,1.66-.51,3.35-.73,5.1-.69,3.02.07,4.71,1.62,4.87,4.55.16,3-.33,5.96-.54,8.93-.33,4.69-.56,9.36.2,14.01.23,1.4.44,3.26,2.37,3.46,1.79.19,2.71-1.38,3.41-2.65,2.74-4.91,4.85-10.01,5.67-15.6.68-4.66,2.92-8.67,6.63-11.89,4.08-3.54,11.04-4.56,15.74-1.89,4.48,2.54,6.22,7.69,3.83,12.41-2.75,5.45-7.49,8.61-13.48,10.1-1.52.38-2.14.9-1.64,2.37.15.45.15.95.3,1.41,2.12,6.31,6.57,7.01,11.74,3.63,4.27-2.8,6.82-6.93,8.92-11.35.36-.75.38-1.55.36-2.36-.12-4.54.43-9.05.67-13.57.05-1.03.52-1.67,1.57-2,2.36-.74,4.73-.73,7.06-.04,1.91.57,2.4,1.52,2.19,3.41-.77,7.1-1.36,14.22-1.21,21.37.03,1.57.42,3.07.97,4.52.58,1.56,1.98,1.85,3.27.7,1.92-1.71,2.61-4.1,3.45-6.31,2.62-6.92,4.3-14.09,5.47-21.37.44-2.76,1.46-3.63,4.44-3.72,1.45-.04,2.85.05,4.26.54,1.25.44,1.87,1.15,1.84,2.34-.14,4.95-.37,9.91-.49,14.86-.1,4.11-.14,8.22-.11,12.32,0,1.58.92.94,1.6.41,4.23-3.29,7.5-7.24,9.23-12.27.23-.65.46-1.33.83-1.91.62-.98,1.65-1.11,2.64-.7.93.39,1.13,1.14.85,2.14-1.65,5.9-4.84,10.84-9.71,14.78-1.4,1.13-2.84,2.23-4.28,3.32-.74.56-1.19,1.17-1.21,2.14-.11,4.37-.28,8.76-1.1,13.05-1,5.23-2.42,10.37-5.81,14.81-5.01,6.55-14.06,8.18-20.36,5.07-4.13-2.04-6.43-6.83-5.6-11.53.89-5.02,3.84-8.71,8.01-11.69,4.07-2.91,8.61-5.08,12.91-7.63,1.24-.74,1.69-1.63,1.71-3,.04-3.89.53-7.76.12-11.72ZM509.33,455.53c-.09,1.45.06,4.04,1.14,6.52.46,1.06,1.14,1.55,2.39,1.6,2.24.1,3.41-1.28,4.22-2.85,3.73-7.31,4.12-15.27,4.67-23.18.1-1.5-2.02-3.33-3.62-3.48-2.29-.21-3.75.68-5.04,3.17-2.77,5.37-3.73,11.11-3.74,18.22ZM620.72,496.26c3.26.11,5.23-1.78,6.83-4.14,1.66-2.44,2.54-5.21,3.13-8.03.64-3.02,1.31-6.04,1.41-9.14.02-.74-.09-1.4-1.11-.74-3.04,1.96-6.11,3.87-9.11,5.9-3.11,2.1-5.58,4.71-6.59,8.36-1.1,4,1.52,7.78,5.43,7.8ZM597.6,436.95c.07-1.01-.14-1.93-1-2.59-1.06-.8-2.47-.58-3.91.63-3.77,3.17-4.51,7.51-4.97,11.94-.13,1.28.79.92,1.4.53,2.03-1.31,3.98-2.75,5.44-4.64,1.37-1.77,2.97-3.48,3.05-5.87Z"/>
    <path id="edler" class="cls-2" d="M699.8,545.45c-1.07.9-1.38,1.96-1.87,2.89-1.12,2.12-2.65,3.92-4.36,5.62-3.16,3.13-9.83,2.3-12.4-1.64-1.29-1.98-2.05-4.11-2.7-6.47-1.13.76-1.42,1.94-1.97,2.9-1.08,1.88-2.4,3.57-3.95,5.12-3.36,3.35-9.31,2.56-12.25-1.01-1.03-1.26-1.88-2.64-2.37-4.2-.19-.6-.34-1.24-.96-1.74-1.13,2.35-2.32,4.61-4.26,6.45-4.73,4.48-12.74,3.71-16.39-1.63-1.2-1.76-2.1-3.63-2.6-5.69-.09-.39-.1-.97-.59-1.06-.52-.1-.66.48-.9.81-2.28,3.11-4.82,5.95-8.18,8.1-7.53,4.82-19.39,2.79-22.5-7.31-2.66-8.62-2.15-17.1,3.2-24.7,4.2-5.96,10.29-7.77,17.1-5.5,6.4,2.14,7.96,9.17,4.67,14.18-3.17,4.82-7.67,7.93-13.57,9.04-.79.15-1,.52-.99,1.19.05,2.62.96,4.96,2.94,6.75,1.88,1.71,4.24,1.48,6.44.66,4.61-1.72,7.32-5.34,9.84-9.18,1.75-2.66,2.23-5.63,2.92-8.58,1.15-4.88,3.37-9.22,7.82-12.06,4.29-2.73,8.94-3.51,13.71-.99.96.5,1.23.4,1.34-.62.34-3.34.41-6.69.9-10.02.71-4.79,1.09-9.64,2.41-14.33.64-2.3,2.22-3.54,4.69-3.64,1.35-.05,2.64-.18,3.91-.65,1.39-.52,2.46-.11,3.32,1.05,1.62,2.18,2.65,4.62,2.9,7.23.25,2.65.45,5.4-.05,7.98-.79,4.06-1.91,8.08-3.93,11.81-1.2,2.22-2.35,4.47-3.87,6.52-.31.41-.39.86-.42,1.35-.31,6.02-.45,12.04.04,18.06.16,1.96.57,3.9,1.44,5.72.86,1.8,2.15,1.94,3.34.33,2.08-2.81,3.25-6.04,4.66-9.17,1.39-3.09,1.27-6.31,1.38-9.57.28-7.82.54-15.65,1.51-23.43.51-4.07,1.12-8.12,1.86-12.16.69-3.76,2.22-5.05,6.15-5.13.8-.02,1.53-.21,2.28-.41,3.68-.95,4.09-.22,5.36,2.91,3.54,8.7,1.25,16.97-2.53,25.04-1.03,2.19-2.29,4.25-3.68,6.26-.85,1.23-.64,2.8-.67,4.2-.12,5.49-.34,10.99.3,16.47.19,1.6.59,3.15,1.29,4.61.86,1.8,2.17,1.93,3.37.32,2.24-2.98,3.35-6.46,4.81-9.8,1.33-3.04,1.38-6.35,2.34-9.45,1.44-4.66,3.74-8.71,8.23-11.44,4-2.43,11.66-2.62,15.28.48,3.91,3.35,4.42,9.16,1.02,13.62-3.26,4.27-7.51,7.08-12.98,8.05-.91.16-1.07.61-.99,1.33.22,1.94.81,3.78,1.9,5.41,1.52,2.26,4.18,2.96,7.07,2.07,3.1-.96,5.32-3.05,7.35-5.34,3.91-4.4,5.93-9.55,6.58-15.25.05-.42.17-.84.29-1.25.55-1.84.49-3.31-1.32-4.77-3.56-2.87-3.27-7.86.23-10.79,2.15-1.79,5.39-1.29,6.07,1.75.36,1.6.29,3.19.25,4.78-.04,1.25.47,1.69,1.76,1.7,2.1,0,4.08-.5,6.06-1.01,1.43-.37,2.89-.43,4.3-.18,2.22.4,3.93,2.64,3.83,5.19-.11,2.71-.52,5.4-.76,8.11-.47,5.21-.94,10.43.66,15.55.78,2.49,2.63,2.82,4.39.79,2.06-2.38,3.07-5.3,4.2-8.13.79-1.99,1.43-4.03,2.16-6.04.37-1.01.93-1.82,2.23-1.83,1.5-.02,2.26.72,1.87,2.1-1.66,5.82-3.56,11.57-6.98,16.7-1.6,2.4-3.56,4.58-6.71,5.14-6.71,1.21-10.42-2.61-11.88-7.67-1.63-5.61-1.22-11.3-.52-16.98.23-1.85.5-3.69.76-5.54.13-.89-.23-1.32-1.19-1.27-.56.03-1.11.03-1.67.04-3.32.05-3.38.04-3.79,3.18-1.09,8.47-4.2,16.13-10.17,22.52-5.41,5.8-10.84,7.84-18.84,5.58-4.33-1.22-6.86-4.54-8.38-8.54-.17-.44-.35-.88-.6-1.51ZM644.15,540.96c-.11,2.48.2,4.9,1.04,7.25.76,2.12,2.83,2.66,4.63,1.22,1.21-.98,2.12-2.19,2.68-3.61,2.7-6.86,3.38-14.08,4-21.3.15-1.79-1.21-2.79-2.65-3.57-1.38-.74-2.73-.67-4.06.28-1.38.98-2.01,2.4-2.61,3.82-2.18,5.1-2.91,10.46-3.03,15.92ZM621.41,522.84c.02-.53-.06-1.56-1.17-2.11-1.24-.61-2.43-.25-3.41.51-1.16.9-2.19,1.93-2.86,3.27-1.35,2.72-2.11,5.58-2.34,8.57-.03.41-.35.91.09,1.18.49.31.96-.09,1.36-.35,2.91-1.84,5.25-4.23,7.21-6.97.78-1.09,1.11-2.3,1.13-4.12ZM710.35,532.53c.1.7-.25,1.4.27,1.68.58.32,1.15-.22,1.63-.53,1.8-1.17,3.33-2.64,4.77-4.19,1.51-1.64,2.87-3.41,3.19-5.66.16-1.14,0-2.28-1.05-3.01-1.11-.77-2.25-.33-3.3.18-.48.23-.88.65-1.26,1.03-2.89,3.03-3.57,6.85-4.25,10.51ZM688.48,515.51c2.81-2.74,4.71-16.33,2.37-18.75-1.33,6.2-1.91,12.47-2.37,18.75ZM667.63,514.58c2.47-4.69,2.93-9.71,2.65-14.85-.02-.41.05-1-.53-1.02-.6-.02-.5.58-.56.98-.31,2.1-.82,4.19-.89,6.3-.1,2.87-.87,5.67-.67,8.58Z"/>
    <path class="cls-2" d="M557.37,536.1c-1.18,3.06-2.18,6.15-3.67,9.06-1.98,3.84-4.43,7.32-8.36,9.53-3.2,1.8-6.57,1.43-9.75-.08-3.98-1.89-5.96-5.39-7.08-9.27-1.99-6.89-1.34-13.95-1.15-20.98.13-4.69.18-9.38-.08-14.08-.22-3.94-.19-7.89-1.16-11.76-.23-.93-.41-1.89-.77-2.78-.99-2.45-2.48-3.03-5.01-1.93-2.55,1.11-4.48,3-6.16,5.06-3.78,4.63-6.25,9.84-6.69,15.76-.21,2.87-.21,5.75,1.48,8.37.98,1.52-.23,3.28-2.39,3.59-5.33.76-7.9-2.45-8.49-6.52-.87-6.07.75-11.76,3.81-17.04,3.64-6.28,8.47-11.56,15.83-13.72,6.91-2.03,13.99-1.07,17.65,5.11,1.89,3.19,2.35,6.73,2.69,10.3.5,5.32.2,10.65.11,15.98-.12,7.35.09,14.71,1.6,21.96.3,1.45.78,2.87,1.64,4.14,1.17,1.73,3.17,1.88,4.59.3,1.97-2.2,2.93-4.87,3.86-7.55,2.42-7,3.81-14.22,4.99-21.49,1.1-6.79,2.1-13.59,2.39-20.46.08-1.9.88-3.04,2.77-3.56,2.33-.64,4.7-.75,7.02.17,1.57.62,2.25,1.63,2.22,3.34-.13,8.11-.57,16.22-.34,24.33.19,6.76.36,13.54,1.91,20.18.46,1.97.91,3.96,2.28,5.61,1.16,1.4,2.78,1.59,4.16.34,2.45-2.24,3.65-5.19,4.82-8.12,2.61-6.59,4.61-13.35,5.74-20.31,1.29-7.86,2.37-15.75.81-23.69-.54-2.76-1.35-5.53-4-7.31-.9-.6-.66-1.18.01-1.83,2.67-2.62,7.57-2.31,9.86.72,1.77,2.34,2.75,5.05,3.05,7.87.95,9.09.13,18.05-2.09,26.96-1.74,6.99-4.08,13.74-7.51,20.11-2.43,4.52-5.37,8.73-9.91,11.63-5.32,3.39-12.63,1.72-16.08-3.49-2.62-3.94-3.62-8.28-4.05-12.82-.05-.55.16-1.19-.57-1.64Z"/>
  </g>
</svg>