<?xml version="1.0" encoding="UTF-8"?>
<svg id="logo" xmlns="http://www.w3.org/2000/svg" viewBox="0 0 576.96 729.39">
  <defs>
    <style>
      .dark-periwinkle {
        fill: #8e95ca;
      }

      .dark-periwinkle, .foreground-white {
        stroke: #8e95ca;
        stroke-miterlimit: 10;
      }

      .foreground-white {
        fill: #fef9fb;
      }
    </style>
  </defs>
  <rect class="dark-periwinkle" x=".5" y=".5" width="575.96" height="728.39"/>
  <path id="outer_white_border" data-name="outer white border" class="foreground-white" d="M22.82,365c0-115.41,0-230.82,0-346.24,0-3.92-.47-3.44,3.54-3.44,175.84,0,351.69,0,527.53,0,2.81,0,2.82,0,2.82,2.79,0,100.56,0,201.11,0,301.67,0,130.4,0,260.8,0,391.19,0,.39,0,.78,0,1.17q0,2.96-3.05,2.96c-168.87,0-337.74,0-506.6,0-7.11,0-14.22,0-21.34,0q-2.91,0-2.93-2.88c0-4.8,0-9.6,0-14.4,0-110.94,0-221.87,0-332.81h.01ZM28.91,365.24c0,113.59,0,227.19,0,340.78q0,2.93,2.98,2.94c171.71,0,343.42,0,515.13-.01q3.62,0,3.62-3.49c0-219.14,0-438.29,0-657.43,0-8.17-.02-16.35.03-24.52,0-1.48-.46-2.22-2.09-2.06-.47.05-.95,0-1.42,0-171.64,0-343.28,0-514.93,0q-3.32,0-3.32,3.19c0,113.53,0,227.06,0,340.59Z"/>
  <path id="Inner_Rectangular_Border" data-name="Inner Rectangular Border" class="foreground-white" d="M39.47,365.22c0-110.54,0-221.09,0-331.63q0-3.19,3.32-3.2c165.21,0,330.41,0,495.62,0q2.89,0,2.89,2.84c0,221.22,0,442.43,0,663.65q0,3.09-3.23,3.09c-165.14,0-330.28,0-495.41,0q-3.2,0-3.2-3.11c0-110.54,0-221.09,0-331.63h.01ZM51.99,365.22h0c0,106.59,0,213.18,0,319.77,0,3.02.01,3.02,3.03,3.02,156.88,0,313.76,0,470.64,0q3.18,0,3.18-3.09c0-212.98,0-425.97,0-638.95,0-.78-.03-1.56-.01-2.34.02-1.06-.51-1.55-1.6-1.53-.61,0-1.22,0-1.83,0-156.74,0-313.49,0-470.23,0-3.15,0-3.16,0-3.16,3.16,0,106.65,0,213.31,0,319.96Z"/>
  <path id="outer_circle" data-name="outer circle" class="foreground-white" d="M491.36,268.07c.69,105.71-89.88,191.55-198.48,192.95-114,1.46-203.95-87.11-204.87-191.21-.95-108.31,90.24-193.45,197.61-195.36,114.53-2.04,206.93,87.34,205.74,193.63ZM289.96,455.57c108.07.69,194.51-84.09,196.17-184.32,1.78-107.51-89.39-191.61-196.32-191.56-107.75.05-196.6,84.3-196.42,188.6.18,102.79,88.5,188.26,196.57,187.28Z"/>
  <path id="Bulb_and_Circle" data-name="Bulb and Circle" class="foreground-white" d="M476.17,267.73c-.24,98.96-82.21,176.99-183.07,178.44-106.35,1.54-189.58-79.42-189.65-178.26-.07-99.12,82.9-179.26,187.8-178.65,101.89.6,184.75,79.2,184.91,178.47ZM321.59,412.76c0,5,0,9.99,0,14.99,0,4.21-.01,4.15,4.29,3.42,6.74-1.13,13.27-3,19.73-5.07,7.96-2.54,15.65-5.72,23.16-9.35,16.13-7.8,30.57-17.83,43.45-29.92,8.67-8.13,16.22-17.16,23.02-26.81,6.58-9.34,11.95-19.27,16.38-29.64,4.3-10.08,7.43-20.52,9.57-31.25,2.05-10.28,3.04-20.64,3.04-31.09,0-10.57-.97-21.04-3.03-31.47-2.37-12.03-6.01-23.66-11.03-34.89-4.8-10.74-10.74-20.91-17.88-30.41-5.1-6.79-10.48-13.36-16.6-19.32-9.08-8.84-18.85-16.88-29.73-23.68-7.89-4.93-16.1-9.25-24.66-12.99-5.67-2.48-11.49-4.55-17.39-6.47-6.8-2.22-13.75-3.88-20.78-5.16-6.44-1.17-12.93-1.99-19.48-2.48-10.49-.79-20.94-.64-31.39.35-8.14.77-16.19,2.04-24.15,3.94-5.98,1.43-11.87,3.09-17.65,5.08-8.67,2.98-17.03,6.65-25.1,10.94-8.13,4.31-15.86,9.18-23.15,14.68-8.26,6.22-15.89,13.1-22.88,20.63-6.12,6.6-11.73,13.57-16.65,21.01-6.3,9.53-11.65,19.54-15.83,30.1-2.76,6.97-4.99,14.09-6.83,21.34-1.97,7.76-3.3,15.63-3.98,23.54-.71,8.32-.72,16.68-.29,25.05.55,10.67,2.35,21.1,5.04,31.42,3.75,14.35,9.61,27.89,17.18,40.78,7.57,12.89,16.85,24.54,27.68,35.05,8.62,8.36,18.01,15.82,28.33,22.24,6.99,4.35,14.17,8.35,21.71,11.72,13.73,6.13,28.02,10.64,43,13.04,2.62.42,3.09.14,3.1-2.33.03-10.96.03-21.93,0-32.89,0-1.69-.43-3.18-1.79-4.55-3.79-3.84-6.4-8.36-7.32-13.62-1.23-7.02-2.56-14.02-3.63-21.07-1.11-7.3-2.72-14.52-3.84-21.82-1.25-8.18-4.68-15.46-9.96-21.81-5.05-6.08-10.2-12.05-14.21-18.83-4.12-6.96-7.44-14.27-9.37-22.06-2.34-9.49-1.88-19.07.09-28.54,1.58-7.59,4.37-14.78,8.3-21.61,6.99-12.13,16.54-21.88,28.84-29.09,15.72-9.22,32.78-13.07,51.2-11.22,17.46,1.75,32.72,8.3,45.8,19.39,11.29,9.57,19.11,21.4,23.67,35.18,1.95,5.9,2.75,11.97,3.33,18.12.67,7.02-.11,13.88-2.05,20.57-1.66,5.72-4.06,11.22-7.04,16.48-3.95,6.98-8.53,13.52-13.99,19.48-5.14,5.61-8.84,12-10.65,19.2-1.97,7.79-2.96,15.78-4.3,23.69-1.26,7.41-2.75,14.78-3.92,22.2-.98,6.27-3.77,11.56-8.43,16-.85.81-.95,1.81-.95,2.87.01,5.64,0,11.29,0,16.93ZM291.8,380.82h0c2.98.01,5.96.02,8.94.01,4.82-.02,8.01-2.7,8.7-7.27.33-2.18.53-4.38.98-6.54,2.44-11.81,4.21-23.73,6.29-35.6,1.77-10.12,6.04-19.17,11.94-27.59,3.39-4.83,7.86-8.87,11.21-13.77,3.87-5.66,7.29-11.52,9.41-17.99,1.82-5.56,2.21-11.22,1.73-17.07-.79-9.49-4.1-18.08-9.37-25.98-4.88-7.31-11.34-13.16-19.09-17.67-5.89-3.43-12.21-5.89-18.97-7.16-7.28-1.37-14.56-1.45-21.94-.23-9.98,1.65-18.9,5.38-26.77,11.36-8.76,6.65-15.26,14.97-19.13,25.11-3.31,8.69-4.76,17.64-2.94,26.73,2.12,10.59,7.77,19.7,14.7,28.06,3.7,4.46,7.64,8.71,10.56,13.73,4.09,7.01,7.25,14.32,8.6,22.28,1.32,7.79,2.64,15.58,4,23.36,1.09,6.25,2.33,12.48,3.3,18.75.72,4.64,3.78,7.43,8.71,7.47,3.05.02,6.1,0,9.14,0ZM292.5,410.75c5.57.14,11.02-.81,16.49-1.63,1.24-.19,1.93-.88,1.94-2.1.01-1.75,0-3.5,0-5.25,0-1.12-.54-1.49-1.69-1.2-1.37.34-2.77.86-4.15.84-10.32-.19-20.68,1.03-30.95-.79-1.21-.21-1.64.11-1.64,1.22,0,1.75.04,3.5-.02,5.25-.05,1.32.68,1.86,1.9,2.05,6,.94,12.02,1.72,18.12,1.61ZM291.99,427.49c5.03.17,9.97-.64,14.91-1.29,3.95-.52,4.06-.79,4.04-4.35-.01-2.45-.42-2.75-3.02-2.36-2.53.38-5.05.84-7.6,1.07-7.97.7-15.91.34-23.82-.8-4.02-.58-3.95-.53-4.05,3.36-.04,1.67.5,2.47,2.24,2.78,5.72,1.01,11.5,1.42,17.3,1.59Z"/>
  <path id="Heart" class="foreground-white" d="M314.53,135.43c.35,6.73-2.92,11.77-7.82,16.03-4.3,3.74-8.64,7.44-12.99,11.14-2.17,1.85-5.53,2.03-7.6.16-4.97-4.49-10.34-8.54-15.18-13.17-5.87-5.6-7.68-15.38-4.39-21.94,1.61-3.2,4.28-5.48,7.7-6.81,4.94-1.92,9.78-1.52,14.41,1.03.84.46,1.56.47,2.45-.03,4.84-2.74,10.06-3.01,14.99-.77,4.95,2.25,8.09,6.2,8.43,11.73.06.9,0,1.81,0,2.63ZM309.29,135.01c0-4.86-2.1-7.85-6.69-9.57-3.48-1.3-8.33-.11-10.96,2.69q-1.73,1.84-3.51.15c-.29-.27-.57-.55-.87-.82-4.31-3.93-11.54-3.28-15,1.35-2.92,3.91-2.55,10.96,1.03,15.3,4.47,5.43,10.49,9.29,15.73,13.96.68.61,1.34.44,1.96-.15,4.31-4.12,9.28-7.53,13.52-11.73,3.16-3.12,4.76-6.85,4.79-11.19Z"/>
  <path id="Peace_Sign" data-name="Peace Sign" class="foreground-white" d="M291.1,291.63c-19.31.52-34.9-15.1-34.92-32.89-.02-19.07,16.19-34.23,36-33.6,17.8.56,33.76,14.33,33.6,33.9-.14,17.76-15.88,33.08-34.68,32.59ZM287.76,244.8h0c0-3.37,0-6.74,0-10.11,0-2.79-.49-3.2-3.34-2.56-6.42,1.43-11.62,4.77-15.75,9.63-5.13,6.04-6.52,13.11-5.66,20.64.43,3.83,1.99,7.38,4.08,10.67,1.36,2.13,1.89,2.14,3.77.34,5.12-4.9,10.22-9.82,15.36-14.7,1.02-.97,1.6-1.99,1.57-3.41-.07-3.5-.02-7-.02-10.49ZM294.2,244.64h0c0,3.63.02,7.25-.01,10.88,0,1.02.2,1.86,1,2.62,5.52,5.24,11.03,10.5,16.49,15.81,1.03,1,1.79.99,2.59-.12,4.89-6.83,5.86-14.39,4.08-22.27-.84-3.73-2.82-7.14-5.38-10.14-4.4-5.16-10.03-8.32-16.89-9.49-1.56-.27-1.9.33-1.88,1.63.04,3.69.01,7.38.01,11.08ZM287.74,275.94h0c0-2.59,0-5.19,0-7.78,0-.43.13-.98-.37-1.23-.63-.31-1,.23-1.36.57-3.89,3.7-7.76,7.42-11.65,11.12-.73.7-.77,1.13.11,1.84,3.43,2.79,7.58,3.88,11.8,4.8,1.21.26,1.48-.58,1.48-1.55,0-2.59,0-5.19,0-7.78ZM294.2,275.95h0c0,2.59-.01,5.18,0,7.77,0,.81.06,1.59,1.32,1.43,4.31-.55,8.18-2.1,11.69-4.54,1.15-.8.78-1.56.07-2.25-3.75-3.65-7.53-7.26-11.33-10.86-.36-.34-.82-.84-1.39-.55-.57.29-.35.93-.36,1.42-.02,2.53-.01,5.05-.01,7.58Z"/>
  <g id="Rays">
    <path class="foreground-white" d="M386.93,214.97c-2.49.36-4.21-.83-5.02-2.84-.81-2-.52-4.05,1.2-5.75,1.51-1.49,3.53-2.13,5.32-3.14,6.74-3.82,13.56-7.52,20.31-11.33,2.02-1.14,4.07-1.84,6.34-1.05,1.9.66,3.09,1.99,3.39,4,.4,2.65-1.01,4.41-3.15,5.61-6.7,3.76-13.47,7.41-20.2,11.1-1.52.84-3.04,1.69-4.55,2.55-1.13.65-2.32,1.06-3.64.84Z"/>
    <path class="foreground-white" d="M415.72,267.54c-4.87,0-9.75.03-14.62,0-3.78-.03-5.63-1.64-5.71-4.87-.08-3.4,1.85-5.42,5.62-5.46,9.88-.09,19.77-.08,29.65-.02,3.26.02,5.85,2.57,5.64,5.45-.17,2.35-2.31,5.01-5.75,4.94-4.94-.1-9.88-.03-14.83-.03h0Z"/>
    <path class="foreground-white" d="M348.89,176.41c-5.34-.03-7.87-4.18-5.81-7.76,1.76-3.05,3.56-6.08,5.37-9.11,3.13-5.21,6.28-10.41,9.41-15.62,1.49-2.49,4.5-3.51,7.13-2.38,2.86,1.22,4.18,3.89,2.74,6.72-1.95,3.83-4.33,7.45-6.54,11.16-2.78,4.66-5.58,9.31-8.37,13.97-1.12,1.87-2.73,3.01-3.93,3.03Z"/>
    <path class="foreground-white" d="M411.2,334.26c-1.34.11-2.47-.3-3.63-.95-8.22-4.6-16.45-9.19-24.75-13.66-3.34-1.8-3.53-5.05-2.4-7.32,1.27-2.54,4.55-3.41,7.33-1.94,5.91,3.13,11.74,6.37,17.6,9.57,2.81,1.54,5.68,3,8.4,4.69,3.73,2.32,3.82,6.88.36,9.04-.94.59-1.92.52-2.91.57Z"/>
    <path class="foreground-white" d="M244.8,169.18c0,2.62-1.56,4.71-3.7,5.23-2.66.65-5.34-.42-6.64-2.58-4.62-7.68-9.25-15.34-13.88-23.01-.96-1.59-1.66-3.22-1.4-5.15.27-2.03,1.43-3.33,3.31-4.06,2.02-.78,3.87-.33,5.45,1.05,2.05,1.79,2.97,4.3,4.35,6.52,3.9,6.28,7.69,12.64,11.53,18.96.62,1.02,1.17,2.06.98,3.05Z"/>
    <path class="foreground-white" d="M203.51,207.02c-.03,4.02-3.93,6.48-7.63,4.58-5.6-2.87-11.05-6-16.56-9.03-3.28-1.81-6.58-3.59-9.81-5.48-2.64-1.54-3.5-4.87-2.02-7.25,1.49-2.39,4.77-3.27,7.49-1.78,8.62,4.73,17.2,9.54,25.78,14.34,1.82,1.02,2.92,2.48,2.75,4.62Z"/>
    <path class="foreground-white" d="M167.76,253.63c4.94,0,9.89-.05,14.83.02,3.47.05,5.56,2.21,5.46,5.45-.09,2.78-2.05,4.86-4.97,4.88-10.23.07-20.45.07-30.68,0-3.1-.02-5.35-2.43-5.29-5.3.06-2.68,2.43-5,5.41-5.04,5.08-.07,10.16-.02,15.24-.02Z"/>
    <path class="foreground-white" d="M196.39,306.12c2.48.01,4.69,1.57,5.33,3.75.63,2.15-.29,4.51-2.59,5.84-4.1,2.39-8.29,4.64-12.44,6.94-4.27,2.37-8.54,4.74-12.81,7.1-3.17,1.75-6.25,1.37-8-.96-1.92-2.56-1.2-6.03,1.81-7.73,8.68-4.88,17.42-9.67,26.13-14.5.8-.44,1.68-.47,2.56-.45Z"/>
  </g>
  <g>
    <path class="foreground-white" d="M428.87,557.65c2.61-.06,4.65.74,6.82.71,4.82-.08,6.24-1.32,6.18-5.89-.03-2-.28-4-.44-6.17,1.45,1.78,1.71,3.89,2.71,5.69,2.09,3.76,4.39,4.46,8.3,2.5,1.85-.93,3.29-2.42,5.34-3.17-1.16,1.52-2.38,3.01-3.48,4.58-2.67,3.78-2.02,6.26,2.21,8.35,1.84.91,3.76,1.67,5.61,2.64-2.06.12-4.02-.67-6.07-.52-.88.07-1.76-.02-2.64.06-2.3.19-3.87,1.85-3.99,4.16-.14,2.51.07,5,.34,7.52-1.41-1.94-1.76-4.28-3.11-6.2-2.19-3.12-4.59-3.68-7.91-1.66-1.74,1.06-3.4,2.22-5.42,3.54.6-1.73,1.87-2.56,2.69-3.67.67-.9,1.34-1.79,1.8-2.8,1.19-2.58.47-4.96-2.1-6.34-2.06-1.11-4.22-2.05-6.82-3.3Z"/>
    <path class="foreground-white" d="M463.96,523.82c2.58-11.19-1.96-17.96-13.51-20.71,5.04.14,9.91,1.15,14.35-1.36,4.46-2.53,5.75-7.12,7.77-11.32-.12,2.17-.07,4.3-.06,6.42.02,6.72,3.07,10.71,9.8,12.8,1.35.42,2.65.95,4.34,1.92-3.15-.42-5.84-.5-8.52-.54-4.51-.08-7.72,1.89-10.16,5.35-1.6,2.26-2.52,4.84-4.02,7.45Z"/>
    <path class="foreground-white" d="M397.7,523.72c1.76,1.23,2.38,2.82,3.58,3.96,2.44,2.32,4.63,2.41,6.98.05,1.19-1.2,2.23-2.53,3.67-4.19-.35,2.3-1.43,3.83-1.75,5.6-.56,3.06.34,4.52,3.54,5.18,1.05.22,2.15.2,3.21.39.84.15,2.38-.5,2.36.65-.02.98-1.59.44-2.46.56-.93.12-1.86.2-2.79.4-4.31.93-4.41,2.92-3.19,7.15.42,1.45,1.24,2.79,1.61,4.33-1.06-1.27-2.14-2.54-3.19-3.82-2.7-3.28-5.35-3.34-8.12-.13-.98,1.13-1.88,2.33-3.15,3.91.35-2.44,1.53-4.07,1.87-5.97.54-3.04-.28-4.36-3.34-5.09-2.03-.48-4.06-.89-6.21-1.13,2.12-.41,4.26-.77,6.37-1.22,3.02-.65,3.69-1.83,3.17-4.77-.34-1.94-1.51-3.58-2.14-5.84Z"/>
    <path class="foreground-white" d="M122.22,593.51c2.42,0,4.41.06,6.4-.01,3.37-.11,5.86-1.51,7.33-4.55.76-1.56,1.27-3.28,2.66-4.67-1.65,7.78.81,13.13,9.49,15.02-1.74.66-3.24.39-4.72.41-5.63.05-8.4,1.94-10.11,7.08-.29.87-.71,1.61-1.41,2.78.06-3.76,1.09-7.18-.76-10.4-1.87-3.26-5.71-3.7-8.89-5.65Z"/>
    <path class="foreground-white" d="M127.6,627.57c-.6.94-1.18,1.89-1.81,2.81-2.14,3.14-1.39,5.5,2.23,6.91.55.22,1.21.21,1.63,1.04-1.19,0-2.3.05-3.39,0-3.24-.17-4.54,1.12-4.35,4.78.04.76.41,1.51.11,2.45-.71-.42-.91-1.09-1.17-1.7-1.71-3.96-3.71-4.57-7.52-2.34-.61.36-1.01,1.07-2.07,1.06.35-1.23,1.45-1.88,2-2.87,1.55-2.8,1.32-3.69-1.38-5.46-1.28-.84-2.78-1.23-4.07-2.1,1.81.04,3.58.32,5.37.24,2.31-.11,3.12-.86,3.19-3.11.04-1.23.06-2.46.11-3.69,0-.1.15-.2.36-.48.57,1.08,1.05,2.1,1.62,3.07,1.37,2.38,3.06,2.88,5.56,1.58,1.24-.65,2.39-1.45,3.58-2.19,0,0,0,0,0,0Z"/>
    <path class="foreground-white" d="M417.63,486.13c4.34,3.62,8.69,3.55,13.31.27-3.87,4.34-3.55,8.52.04,12.84-4.39-3.43-8.73-3.69-13.26-.31.82-2.28,2.7-3.86,2.67-6.41-.03-2.55-1.85-4.15-2.76-6.39Z"/>
    <path class="foreground-white" d="M93.56,621.63c-1.51-1.32-3.04-1.8-4.8-.58-.82.57-1.13.01-1.08-.68.13-1.64-.48-2.75-2.19-3.24-.61-.17-.76-.81-.21-.98,2.25-.71,2.48-2.47,2.4-4.65,2.25,1.6,4.16,1.43,5.94-.18.58,1.07-.19,2.41.46,2.92,2.03,1.6,2.39,2.89.01,4.43-.27.18-.1.98-.14,1.5-.04.43.16.9-.39,1.46Z"/>
    <path class="foreground-white" d="M99.91,581.91c3.16,2.43,5.86,2.1,8.72.36-1.67,2.65-2.3,5.21.07,8-1.83-.04-2.93-1.08-4.38-1.06-1.47.02-2.66.84-4.22,1.04.3-1.44,1.29-2.47,1.28-3.91,0-1.46-.9-2.51-1.47-4.43Z"/>
    <path class="foreground-white" d="M486.33,568.52c-1.44.05-2.53.27-3.34,1.19-.34.39-1.11.77-1.1-.16.02-1.33-.88-2.07-1.66-2.91.19-.17.27-.31.38-.33,2.83-.67,3.6-.4,5.72,2.21Z"/>
    <path class="foreground-white" d="M401.02,507.13c-.1-1.36-.27-2.35-1.19-3.08-.64-.52-.55-1.13.33-1.18,1.21-.06,1.94-.78,2.91-1.57.48,1.2.56,2.5,1.68,3.31.4.29.14.82-.34.82-1.33,0-2.15.9-3.38,1.7Z"/>
    <path class="foreground-white" d="M436.93,523.72c.81-1.54.42-2.75-.19-4.07.96.09,1.76.31,2.51.21,1.37-.19,1.83-.31,1.84,1.55.02,2.01-.56,2.24-2.22,2.1-.51-.04-1.04.1-1.94.21Z"/>
    <path class="foreground-white" d="M143.77,638.29c1.19.38,1.72-2.31,3.05-.4.27.39,1.64,1.13.28,1.99-1.9,1.2-2.6.02-3.32-1.59Z"/>
    <path class="foreground-white" d="M88.44,647.3c-1.21-.36-1.38-1.53-1.41-2.17-.05-.92,1.37-1.13,2.03-1.14.98-.01,1.31,1.41,1.37,1.96.11.88-1.46.63-1.99,1.35Z"/>
    <path class="foreground-white" d="M90.53,594.92c-.6.79-1.45,1.24-2.21,1.19-1.01-.07-1.29-1.34-1.29-1.92,0-1.02,1.43-1.23,2.14-1.22.87.02.6,1.39,1.36,1.95Z"/>
    <path class="foreground-white" d="M476.18,537.22c-.99-.42-.95-1.32-1.02-1.97-.1-.88.84-1.11,1.53-1.13.97-.03,1.47.87,1.48,1.52.02,1.13-1.43.87-1.99,1.58Z"/>
  </g>
  <path class="foreground-white" d="M237.95,633.63c-1.44,3.72-2.65,7.47-4.47,11.01-2.4,4.67-5.38,8.9-10.16,11.58-3.88,2.18-7.99,1.74-11.85-.09-4.84-2.3-7.24-6.55-8.61-11.26-2.42-8.37-1.63-16.96-1.39-25.5.16-5.7.22-11.4-.1-17.11-.27-4.79-.23-9.59-1.41-14.29-.28-1.13-.5-2.3-.94-3.37-1.2-2.97-3.01-3.68-6.09-2.34-3.1,1.35-5.44,3.65-7.49,6.15-4.6,5.63-7.6,11.96-8.14,19.16-.26,3.48-.25,6.99,1.8,10.17,1.19,1.85-.27,3.98-2.9,4.36-6.47.93-9.6-2.98-10.32-7.93-1.06-7.38.91-14.29,4.63-20.71,4.42-7.63,10.3-14.05,19.24-16.68,8.4-2.47,17-1.3,21.45,6.21,2.3,3.88,2.85,8.18,3.27,12.52.61,6.47.25,12.94.14,19.42-.15,8.94.11,17.88,1.95,26.7.37,1.76.95,3.48,2,5.03,1.42,2.11,3.86,2.29,5.58.37,2.39-2.67,3.57-5.92,4.69-9.17,2.94-8.51,4.63-17.28,6.07-26.11,1.34-8.25,2.55-16.51,2.9-24.87.1-2.3,1.07-3.69,3.37-4.32,2.83-.78,5.71-.91,8.54.21,1.91.76,2.73,1.98,2.7,4.06-.15,9.86-.69,19.71-.41,29.57.23,8.22.43,16.45,2.32,24.53.56,2.4,1.11,4.81,2.77,6.82,1.41,1.71,3.38,1.94,5.05.41,2.98-2.72,4.44-6.3,5.86-9.87,3.17-8.01,5.6-16.22,6.98-24.69,1.56-9.55,2.87-19.14.99-28.79-.66-3.36-1.64-6.72-4.86-8.88-1.09-.73-.8-1.43.01-2.22,3.25-3.18,9.2-2.81,11.99.88,2.15,2.84,3.34,6.14,3.7,9.56,1.16,11.05.16,21.94-2.53,32.76-2.11,8.5-4.96,16.7-9.12,24.44-2.96,5.49-6.52,10.61-12.04,14.13-6.47,4.12-15.35,2.09-19.55-4.24-3.18-4.79-4.4-10.07-4.92-15.59-.06-.67.2-1.45-.69-1.99Z"/>
  <path id="Carey" class="foreground-white" d="M329.41,535.39c-1.87,3.93-3.7,7.86-6.27,11.45-1.36,1.9-2.99,3.55-5,4.75-4.29,2.57-11.43.52-13.94-3.9-1.08-1.89-1.91-3.86-2.29-6-.13-.75-.29-1.53-.99-2.36-.89,1.19-1.68,2.35-2.58,3.42-3.78,4.47-7.78,8.76-13.97,10.11-8.85,1.93-17.51-.89-21.26-9.84-.36-.86-.5-2.32-1.41-2.35-.99-.03-1.09,1.45-1.56,2.27-1.87,3.24-3.84,6.39-7.21,8.44-5.16,3.14-12.57,1.33-15.78-4.06-2.12-3.56-2.78-7.44-2.95-11.39-.27-6.23.15-12.43,1.37-18.57.57-2.85.03-3.41-2.98-3.04-4.59.57-4.37.61-5.16,4.99-1.75,9.76-4.59,19.19-10.31,27.59-1.81,2.67-4.15,4.84-7.56,5.48-5.31,1.01-10.72-2.19-12.77-7.39-.34-.87-.26-2.35-1.31-2.39-1.01-.04-1.1,1.44-1.57,2.26-1.39,2.4-2.99,4.63-5.3,6.31-5.78,4.19-15.23,2.48-19.32-4.64-.92-1.61-1.47-3.33-2.05-5.06-.18-.54-.19-1.26-.93-1.38-.74-.12-1,.54-1.34,1.01-3.62,5-8.2,8.88-14.04,11.43-5.47,2.38-11.2,2.91-17.05,2.47-4.8-.37-9.47-1.35-13.73-3.73-5.65-3.16-10.06-7.43-12.84-13.1-5.28-10.75-5.74-22.02-3.33-33.45,2.3-10.94,7.81-20.07,17.41-26.69,5.73-3.96,12.06-6.18,19.18-6.65,4.97-.33,9.71-.05,14.24,2.07,8.26,3.87,12.14,13.24,8.81,21.39-2.49,6.11-11.61,8.25-16.21,3.87-1.02-.98-1.16-1.59-.11-2.7,3.8-4.01,4.77-8.75,3.42-13.93-.7-2.69-3.04-4.28-5.95-4.45-7.86-.47-13.38,3.48-17.95,8.92-5.74,6.85-8.02,14.99-9.08,23.55-.89,7.15-.1,14.11,2.48,20.83,2.57,6.69,6.71,12.27,14.08,14.63,7.76,2.49,14.96.89,21.4-3.84,4.6-3.39,8.08-7.71,10.16-12.86,1.1-2.74,1.2-5.84,2.12-8.67,2.29-7.04,6.15-12.99,14.08-15.06,4.32-1.13,8.86-1.45,12.69,1.74.68.56,1.23.21,1.85-.08,3.11-1.45,6.27-1.22,9.44-.2,1.48.47,2.13,1.44,2.03,2.96-.23,3.62-.33,7.25-.58,10.87-.44,6.28-.56,12.55.49,18.8.13.76.36,1.51.54,2.27.31,1.31.75,2.61,2.36,2.83,1.64.22,2.44-1.08,3.09-2.15,1.48-2.39,2.74-4.91,3.83-7.5,2.63-6.27,4.55-12.71,5.34-19.44.17-1.42-.32-2.33-1.58-3.25-4.75-3.47-4.37-11.03.58-14.02,2.9-1.75,5.9-.55,6.71,2.63.51,1.99.37,4,.3,6-.05,1.49.63,2.02,2.06,1.89,1.68-.15,3.37-.23,4.99-.73,2.02-.62,4.07-.89,6.19-.84,3.67.09,5.73,1.97,5.92,5.53.2,3.64-.4,7.24-.66,10.85-.41,5.69-.68,11.38.24,17.03.28,1.7.53,3.96,2.88,4.21,2.17.23,3.29-1.67,4.15-3.22,3.32-5.97,5.89-12.17,6.89-18.96.83-5.66,3.55-10.54,8.05-14.46,4.96-4.31,13.42-5.54,19.13-2.3,5.44,3.09,7.56,9.35,4.66,15.08-3.35,6.62-9.11,10.46-16.38,12.27-1.84.46-2.6,1.09-1.99,2.88.19.55.18,1.16.36,1.71,2.57,7.67,7.99,8.52,14.27,4.41,5.2-3.4,8.29-8.43,10.84-13.8.43-.91.46-1.89.43-2.86-.14-5.52.52-10.99.81-16.49.07-1.25.63-2.03,1.91-2.43,2.87-.91,5.75-.89,8.59-.05,2.32.69,2.92,1.85,2.67,4.14-.94,8.64-1.66,17.28-1.48,25.98.04,1.91.51,3.73,1.17,5.5.71,1.9,2.41,2.24,3.98.85,2.34-2.08,3.17-4.98,4.19-7.67,3.18-8.42,5.23-17.13,6.65-25.97.54-3.35,1.78-4.42,5.39-4.53,1.76-.05,3.46.06,5.18.66,1.52.53,2.27,1.39,2.23,2.84-.17,6.02-.45,12.04-.6,18.06-.12,4.99-.17,9.99-.14,14.98.01,1.92,1.12,1.14,1.95.5,5.14-4,9.12-8.8,11.22-14.91.27-.8.56-1.61,1-2.32.75-1.19,2-1.35,3.21-.85,1.14.47,1.37,1.38,1.04,2.6-2,7.16-5.88,13.18-11.8,17.97-1.7,1.38-3.45,2.71-5.21,4.03-.9.67-1.44,1.42-1.47,2.6-.13,5.31-.34,10.65-1.33,15.86-1.21,6.36-2.94,12.61-7.07,18-6.09,7.96-17.09,9.94-24.75,6.16-5.02-2.48-7.82-8.31-6.8-14.02,1.08-6.1,4.67-10.58,9.74-14.21,4.95-3.54,10.47-6.17,15.69-9.27,1.51-.9,2.05-1.98,2.07-3.65.05-4.72.64-9.43.15-14.24ZM179.56,536c-.11,1.77.07,4.91,1.38,7.93.56,1.29,1.38,1.88,2.9,1.94,2.72.12,4.15-1.55,5.12-3.46,4.53-8.88,5.01-18.56,5.67-28.17.13-1.82-2.46-4.04-4.4-4.22-2.78-.26-4.56.83-6.12,3.85-3.37,6.53-4.53,13.5-4.55,22.14ZM314.96,585.5c3.96.14,6.35-2.16,8.3-5.03,2.02-2.97,3.08-6.33,3.81-9.76.78-3.67,1.6-7.35,1.72-11.11.03-.9-.11-1.7-1.35-.9-3.7,2.38-7.43,4.71-11.07,7.17-3.78,2.56-6.78,5.72-8,10.16-1.34,4.86,1.85,9.46,6.6,9.48ZM286.86,513.42c.08-1.23-.16-2.35-1.22-3.15-1.28-.97-3-.71-4.76.77-4.58,3.85-5.49,9.13-6.05,14.51-.16,1.55.96,1.12,1.7.64,2.46-1.6,4.84-3.34,6.61-5.64,1.66-2.15,3.61-4.22,3.71-7.14Z"/>
  <path id="edler" class="foreground-white" d="M411.07,645.3c-1.3,1.1-1.67,2.38-2.27,3.51-1.36,2.57-3.22,4.76-5.3,6.82-3.83,3.8-11.95,2.79-15.07-1.99-1.57-2.41-2.49-4.99-3.28-7.86-1.38.93-1.73,2.35-2.4,3.53-1.31,2.29-2.91,4.34-4.8,6.23-4.09,4.07-11.32,3.11-14.88-1.23-1.26-1.53-2.28-3.21-2.88-5.11-.23-.73-.42-1.5-1.17-2.11-1.38,2.86-2.81,5.61-5.17,7.84-5.75,5.45-15.48,4.51-19.93-1.99-1.46-2.13-2.56-4.41-3.16-6.91-.11-.47-.12-1.18-.71-1.29-.64-.13-.81.58-1.1.98-2.78,3.78-5.86,7.23-9.95,9.85-9.15,5.86-23.57,3.4-27.35-8.89-3.23-10.48-2.62-20.79,3.89-30.02,5.1-7.24,12.51-9.45,20.79-6.69,7.78,2.6,9.68,11.15,5.67,17.24-3.86,5.86-9.32,9.64-16.49,10.98-.96.18-1.22.63-1.2,1.45.06,3.19,1.17,6.03,3.57,8.21,2.29,2.08,5.15,1.8,7.82.8,5.6-2.09,8.9-6.49,11.96-11.16,2.12-3.23,2.71-6.85,3.55-10.43,1.4-5.93,4.1-11.21,9.51-14.66,5.21-3.32,10.87-4.26,16.66-1.2,1.16.61,1.5.48,1.63-.75.42-4.06.5-8.13,1.1-12.18.86-5.82,1.32-11.71,2.92-17.42.78-2.79,2.7-4.31,5.7-4.42,1.64-.06,3.21-.21,4.75-.79,1.68-.63,2.99-.13,4.03,1.28,1.97,2.65,3.22,5.61,3.52,8.79.3,3.22.55,6.57-.06,9.7-.96,4.93-2.32,9.83-4.78,14.36-1.46,2.7-2.85,5.44-4.7,7.93-.37.5-.48,1.05-.51,1.65-.38,7.32-.55,14.64.05,21.95.19,2.38.7,4.75,1.75,6.95,1.05,2.19,2.61,2.35,4.06.4,2.53-3.42,3.95-7.34,5.66-11.15,1.69-3.76,1.54-7.67,1.68-11.63.34-9.51.66-19.02,1.84-28.48.62-4.95,1.36-9.88,2.26-14.78.84-4.57,2.69-6.14,7.48-6.23.97-.02,1.86-.26,2.78-.5,4.48-1.16,4.97-.26,6.51,3.54,4.3,10.58,1.52,20.62-3.08,30.43-1.25,2.66-2.78,5.16-4.47,7.6-1.03,1.49-.78,3.4-.82,5.1-.15,6.67-.42,13.36.37,20.01.23,1.94.72,3.82,1.57,5.61,1.04,2.19,2.63,2.34,4.09.39,2.72-3.62,4.07-7.86,5.84-11.91,1.61-3.7,1.68-7.71,2.84-11.49,1.75-5.67,4.55-10.59,10-13.9,4.86-2.95,14.17-3.18,18.57.59,4.75,4.07,5.38,11.14,1.24,16.55-3.96,5.18-9.13,8.6-15.77,9.78-1.11.2-1.3.74-1.2,1.62.27,2.35.98,4.6,2.31,6.57,1.85,2.74,5.08,3.6,8.6,2.51,3.77-1.17,6.46-3.71,8.94-6.49,4.75-5.34,7.21-11.61,8-18.53.06-.51.21-1.02.36-1.51.67-2.24.59-4.03-1.6-5.8-4.32-3.49-3.98-9.55.28-13.11,2.61-2.18,6.55-1.57,7.38,2.12.44,1.94.36,3.87.3,5.81-.04,1.52.57,2.06,2.14,2.06,2.55.01,4.96-.6,7.37-1.23,1.74-.45,3.51-.52,5.23-.21,2.69.48,4.77,3.21,4.65,6.31-.13,3.29-.63,6.57-.93,9.85-.57,6.33-1.14,12.68.81,18.9.95,3.03,3.19,3.43,5.33.96,2.5-2.9,3.73-6.44,5.1-9.88.96-2.42,1.74-4.9,2.63-7.34.45-1.22,1.13-2.21,2.7-2.23,1.82-.02,2.75.87,2.27,2.56-2.02,7.07-4.33,14.06-8.49,20.3-1.95,2.92-4.33,5.56-8.15,6.25-8.16,1.47-12.66-3.17-14.44-9.32-1.98-6.82-1.48-13.73-.64-20.64.28-2.25.6-4.49.93-6.73.16-1.08-.28-1.6-1.44-1.54-.68.04-1.35.04-2.03.05-4.04.06-4.11.05-4.6,3.86-1.33,10.29-5.11,19.6-12.36,27.37-6.57,7.04-13.18,9.52-22.9,6.78-5.26-1.49-8.34-5.52-10.19-10.38-.21-.54-.43-1.07-.73-1.83ZM343.44,639.84c-.13,3.01.25,5.96,1.27,8.81.92,2.57,3.44,3.24,5.62,1.48,1.48-1.19,2.58-2.67,3.26-4.39,3.28-8.34,4.1-17.12,4.86-25.89.19-2.18-1.47-3.39-3.22-4.34-1.67-.9-3.32-.81-4.93.33-1.67,1.19-2.44,2.91-3.18,4.64-2.65,6.2-3.53,12.72-3.68,19.35ZM315.79,617.81c.02-.64-.07-1.9-1.42-2.56-1.5-.74-2.95-.3-4.15.62-1.41,1.09-2.66,2.34-3.47,3.98-1.64,3.31-2.56,6.78-2.85,10.42-.04.5-.43,1.1.1,1.44.59.37,1.16-.11,1.65-.42,3.53-2.24,6.38-5.14,8.77-8.47.95-1.33,1.35-2.79,1.37-5ZM423.89,629.59c.12.85-.3,1.7.32,2.04.7.39,1.4-.26,1.98-.65,2.18-1.43,4.05-3.21,5.79-5.1,1.84-2,3.49-4.14,3.88-6.89.19-1.38.01-2.77-1.28-3.66-1.34-.93-2.73-.4-4.01.22-.58.28-1.07.78-1.53,1.26-3.51,3.68-4.34,8.33-5.16,12.77ZM397.31,608.91c3.42-3.33,5.73-19.85,2.88-22.79-1.62,7.54-2.32,15.15-2.88,22.79ZM371.97,607.77c3-5.7,3.56-11.8,3.22-18.05-.03-.49.06-1.22-.64-1.24-.73-.02-.61.71-.68,1.2-.38,2.55-1,5.1-1.09,7.66-.12,3.49-1.06,6.89-.81,10.43Z"/>
  <path class="foreground-white" d="M237.95,633.93c-1.44,3.72-2.65,7.47-4.47,11.01-2.4,4.67-5.38,8.9-10.16,11.58-3.88,2.18-7.99,1.74-11.85-.09-4.84-2.3-7.24-6.55-8.61-11.26-2.42-8.37-1.63-16.96-1.39-25.5.16-5.7.22-11.4-.1-17.11-.27-4.79-.23-9.59-1.41-14.29-.28-1.13-.5-2.3-.94-3.37-1.2-2.97-3.01-3.68-6.09-2.34-3.1,1.35-5.44,3.65-7.49,6.15-4.6,5.63-7.6,11.96-8.14,19.16-.26,3.48-.25,6.99,1.8,10.17,1.19,1.85-.27,3.98-2.9,4.36-6.47.93-9.6-2.98-10.32-7.93-1.06-7.38.91-14.29,4.63-20.71,4.42-7.63,10.3-14.05,19.24-16.68,8.4-2.47,17-1.3,21.45,6.21,2.3,3.88,2.85,8.18,3.27,12.52.61,6.47.25,12.94.14,19.42-.15,8.94.11,17.88,1.95,26.7.37,1.76.95,3.48,2,5.03,1.42,2.11,3.86,2.29,5.58.37,2.39-2.67,3.57-5.92,4.69-9.17,2.94-8.51,4.63-17.28,6.07-26.11,1.34-8.25,2.55-16.51,2.9-24.87.1-2.3,1.07-3.69,3.37-4.32,2.83-.78,5.71-.91,8.54.21,1.91.76,2.73,1.98,2.7,4.06-.15,9.86-.69,19.71-.41,29.57.23,8.22.43,16.45,2.32,24.53.56,2.4,1.11,4.81,2.77,6.82,1.41,1.71,3.38,1.94,5.05.41,2.98-2.72,4.44-6.3,5.86-9.87,3.17-8.01,5.6-16.22,6.98-24.69,1.56-9.55,2.87-19.14.99-28.79-.66-3.36-1.64-6.72-4.86-8.88-1.09-.73-.8-1.43.01-2.22,3.25-3.18,9.2-2.81,11.99.88,2.15,2.84,3.34,6.14,3.7,9.56,1.16,11.05.16,21.94-2.53,32.76-2.11,8.5-4.96,16.7-9.12,24.44-2.96,5.49-6.52,10.61-12.04,14.13-6.47,4.12-15.35,2.09-19.55-4.24-3.18-4.79-4.4-10.07-4.92-15.59-.06-.67.2-1.45-.69-1.99Z"/>
</svg>